<svg xmlns="http://www.w3.org/2000/svg" viewBox="0 0 560 200" fill="none">
  <defs>
    <linearGradient id="g" x1="0" y1="0" x2="1" y2="0">
      <stop offset="0" stop-color="#2dd4bf"/><stop offset="0.55" stop-color="#a78bfa"/><stop offset="1" stop-color="#fbbf24"/>
    </linearGradient>
  </defs>
  <!-- marquee sign -->
  <rect x="120" y="22" width="320" height="156" rx="18" stroke="#1e1e33" stroke-width="3" fill="#0d0d1a"/>
  <!-- bulbs -->
  <g fill="url(#g)">
    <circle cx="146" cy="44" r="5"/><circle cx="190" cy="44" r="5"/><circle cx="234" cy="44" r="5"/><circle cx="280" cy="44" r="5"/><circle cx="326" cy="44" r="5"/><circle cx="370" cy="44" r="5"/><circle cx="414" cy="44" r="5"/>
    <circle cx="146" cy="156" r="5"/><circle cx="190" cy="156" r="5"/><circle cx="234" cy="156" r="5"/><circle cx="280" cy="156" r="5"/><circle cx="326" cy="156" r="5"/><circle cx="370" cy="156" r="5"/><circle cx="414" cy="156" r="5"/>
  </g>
  <!-- stacked name -->
  <text x="280" y="92" text-anchor="middle" font-family="'Space Grotesk','Arial',sans-serif" font-size="34" font-weight="700" fill="#ecedf6" letter-spacing="2">ALEX COULOMBE</text>
  <!-- gradient banner -->
  <rect x="200" y="106" width="160" height="32" rx="16" fill="url(#g)"/>
  <text x="280" y="128" text-anchor="middle" font-family="'Space Grotesk','Arial',sans-serif" font-size="16" font-weight="700" fill="#07070f" letter-spacing="6">PRESENTS</text>
  <!-- comedy mask (left) -->
  <g transform="translate(166,122)">
    <ellipse rx="14" ry="16" fill="#0d0d1a" stroke="#2dd4bf" stroke-width="2.5"/>
    <path d="M-7 -4 q3 -4 6 0" stroke="#2dd4bf" stroke-width="2" stroke-linecap="round"/>
    <path d="M1 -4 q3 -4 6 0" stroke="#2dd4bf" stroke-width="2" stroke-linecap="round"/>
    <path d="M-7 5 q7 8 14 0" stroke="#2dd4bf" stroke-width="2.5" stroke-linecap="round"/>
  </g>
  <!-- tragedy mask (right) -->
  <g transform="translate(394,122)">
    <ellipse rx="14" ry="16" fill="#0d0d1a" stroke="#a78bfa" stroke-width="2.5"/>
    <path d="M-7 -6 q3 4 6 0" stroke="#a78bfa" stroke-width="2" stroke-linecap="round"/>
    <path d="M1 -6 q3 4 6 0" stroke="#a78bfa" stroke-width="2" stroke-linecap="round"/>
    <path d="M-7 9 q7 -8 14 0" stroke="#a78bfa" stroke-width="2.5" stroke-linecap="round"/>
  </g>
</svg>
